<?xml version="1.0" standalone="no"?>
<!DOCTYPE svg PUBLIC "-//W3C//DTD SVG 20010904//EN"
 "http://www.w3.org/TR/2001/REC-SVG-20010904/DTD/svg10.dtd">
<svg version="1.0" xmlns="http://www.w3.org/2000/svg"
 width="980pt" height="980pt" viewBox="0 0 980 980"
 preserveAspectRatio="xMidYMid meet">

<g transform="translate(0,980) scale(0.1,-0.1)" fill="#a3c5ef" stroke="none">
<path d="M4870 9794 c-19 -2 -78 -9 -130 -14 -794 -86 -1536 -545 -1993 -1231
-206 -310 -366 -716 -422 -1075 l-6 -41 -89 23 c-272 71 -600 72 -872 3 -350
-88 -677 -287 -908 -552 -481 -551 -585 -1328 -266 -1982 273 -557 802 -926
1428 -994 134 -15 6124 -15 6269 -1 741 75 1381 520 1705 1185 277 570 284
1230 20 1815 -104 230 -244 429 -436 620 -362 361 -812 567 -1335 610 -66 5
-147 10 -180 10 l-60 0 -60 117 c-408 797 -1181 1351 -2070 1483 -134 20 -504
35 -595 24z"/>
</g>
<g transform="translate(0,980) scale(0.1,-0.1)" fill="#5daae5" stroke="none">
<path d="M1720 3251 c-54 -17 -107 -51 -146 -93 -23 -24 -277 -337 -564 -697
-333 -417 -532 -675 -549 -710 -38 -81 -37 -184 2 -263 35 -72 111 -141 179
-164 78 -26 186 -16 263 24 33 17 70 39 82 49 47 38 1086 1349 1112 1403 22
46 26 68 26 140 0 72 -4 93 -27 136 -54 102 -168 174 -287 180 -36 2 -77 0
-91 -5z"/>
<path d="M3663 3242 c-28 -10 -68 -31 -88 -46 -48 -37 -2168 -2687 -2197
-2746 -14 -29 -23 -71 -26 -117 -6 -105 16 -161 92 -239 51 -52 71 -65 120
-79 112 -32 255 2 343 81 53 48 2115 2635 2147 2693 23 43 30 71 34 131 4 68
1 84 -23 139 -68 150 -255 236 -402 183z"/>
<path d="M5640 3251 c-54 -17 -107 -51 -146 -93 -23 -24 -277 -337 -564 -697
-333 -417 -532 -675 -549 -710 -38 -81 -37 -184 2 -263 35 -72 111 -141 179
-164 78 -26 186 -16 263 24 33 17 70 39 82 49 47 38 1086 1349 1112 1403 22
46 26 68 26 140 0 72 -4 93 -27 136 -54 102 -168 174 -287 180 -36 2 -77 0
-91 -5z"/>
<path d="M7583 3242 c-28 -10 -68 -31 -88 -46 -48 -37 -2168 -2687 -2197
-2746 -14 -29 -23 -71 -26 -117 -6 -105 16 -161 92 -239 51 -52 71 -65 120
-79 112 -32 255 2 343 81 53 48 2115 2635 2147 2693 23 43 30 71 34 131 4 68
1 84 -23 139 -68 150 -255 236 -402 183z"/>
</g>
</svg>
